<svg width="481" height="57" viewBox="0 0 481 57" fill="none" xmlns="http://www.w3.org/2000/svg">
<path d="M449.079 10.8705V52.886C449.079 53.178 448.84 53.4168 448.548 53.4168H443.824C443.532 53.4168 443.293 53.178 443.293 52.886V1.39509C443.293 1.10313 443.532 0.864258 443.824 0.864258H450.857C451.043 0.864258 451.229 0.970425 451.309 1.12967L474.055 42.8267C474.32 43.3045 475.037 43.1187 475.037 42.5613V1.39509C475.037 1.10313 475.276 0.864258 475.568 0.864258H480.292C480.584 0.864258 480.823 1.10313 480.823 1.39509V52.9125C480.823 53.2045 480.584 53.4434 480.292 53.4434H473.922C473.736 53.4434 473.55 53.3372 473.471 53.178L450.061 10.6316C449.796 10.1539 449.079 10.3396 449.079 10.897V10.8705Z" fill="white"/>
<path d="M430.314 52.992V1.31529C430.314 1.07642 430.5 0.890625 430.739 0.890625H435.941C436.18 0.890625 436.366 1.07642 436.366 1.31529V53.0185C436.366 53.2574 436.18 53.4432 435.941 53.4432H430.739C430.5 53.4432 430.314 53.2574 430.314 53.0185V52.992Z" fill="white"/>
<path d="M422.962 53.4167H417.76C417.521 53.4167 417.336 53.2309 417.336 52.992V29.6088C417.336 29.3699 417.15 29.1841 416.911 29.1841H393.899C393.66 29.1841 393.475 29.3699 393.475 29.6088V52.992C393.475 53.2309 393.289 53.4167 393.05 53.4167H387.821C387.582 53.4167 387.396 53.2309 387.396 52.992V1.31529C387.396 1.07642 387.582 0.890625 387.821 0.890625H393.05C393.289 0.890625 393.475 1.07642 393.475 1.31529V23.6634C393.475 23.9023 393.66 24.0881 393.899 24.0881H416.911C417.15 24.0881 417.336 23.9023 417.336 23.6634V1.31529C417.336 1.07642 417.521 0.890625 417.76 0.890625H422.962C423.201 0.890625 423.387 1.07642 423.387 1.31529V53.0185C423.387 53.2574 423.201 53.4432 422.962 53.4432V53.4167Z" fill="white"/>
<path d="M346.787 0.864258H382.512C382.751 0.864258 382.937 1.05005 382.937 1.28893V5.61522C382.937 5.8541 382.751 6.03989 382.512 6.03989H368.126C367.887 6.03989 367.702 6.22568 367.702 6.46456V52.9656C367.702 53.2045 367.516 53.3903 367.277 53.3903H362.048C361.809 53.3903 361.624 53.2045 361.624 52.9656V6.4911C361.624 6.25222 361.438 6.06643 361.199 6.06643H346.813C346.574 6.06643 346.389 5.88064 346.389 5.64177V1.31547C346.389 1.07659 346.574 0.890799 346.813 0.890799L346.787 0.864258Z" fill="white"/>
<path d="M335.083 52.992V1.31529C335.083 1.07642 335.269 0.890625 335.508 0.890625H340.71C340.949 0.890625 341.135 1.07642 341.135 1.31529V53.0185C341.135 53.2574 340.949 53.4432 340.71 53.4432H335.508C335.269 53.4432 335.083 53.2574 335.083 53.0185V52.992Z" fill="white"/>
<path d="M294.076 0.864258H300.605C300.87 0.864258 301.109 1.05005 301.162 1.28893L313.079 45.0827C313.239 45.6667 314.088 45.6667 314.247 45.0827L324.599 1.31547C324.652 1.05005 324.891 0.864258 325.156 0.864258H330.04C330.411 0.864258 330.703 1.2093 330.597 1.58088L317.91 52.9125C317.83 53.2045 317.565 53.4168 317.247 53.4168H310.478C310.186 53.4168 309.921 53.2045 309.841 52.9125L297.871 9.33106C297.712 8.74715 296.889 8.74715 296.73 9.33106L284.972 52.886C284.892 53.178 284.627 53.3903 284.335 53.3903H277.646C277.328 53.3903 277.062 53.178 276.983 52.886L264.084 1.60743C264.004 1.23584 264.269 0.890799 264.641 0.890799H269.896C270.162 0.890799 270.4 1.07659 270.454 1.34201L280.592 45.0562C280.725 45.6667 281.574 45.6667 281.76 45.0562L293.518 1.28893C293.598 1.02351 293.81 0.864258 294.076 0.864258Z" fill="white"/>
<path d="M247.203 27.1404C247.203 42.7469 237.516 53.4167 220.237 53.4167H202.666C202.481 53.4167 202.321 53.2574 202.321 53.0716V1.23567C202.321 1.04988 202.481 0.890625 202.666 0.890625H220.237C237.516 0.890625 247.203 11.5604 247.203 27.1669V27.1404ZM241.099 27.1404C241.099 12.9406 232.844 5.88047 219.175 5.88047H208.744C208.559 5.88047 208.399 6.03972 208.399 6.22551V48.0022C208.399 48.1879 208.559 48.3472 208.744 48.3472H219.175C232.844 48.3472 241.099 41.2871 241.099 27.0873V27.1404Z" fill="white"/>
<path d="M197.49 53.4167H168.719C168.559 53.4167 168.427 53.284 168.427 53.1247V1.18258C168.427 1.02333 168.559 0.890625 168.719 0.890625H174.213C174.372 0.890625 174.505 1.02333 174.505 1.18258V47.9491C174.505 48.1083 174.638 48.241 174.797 48.241H197.463C197.623 48.241 197.755 48.3737 197.755 48.533V53.1247C197.755 53.284 197.623 53.4167 197.463 53.4167H197.49Z" fill="white"/>
<path d="M158.076 53.2841L144.513 30.6175C144.513 30.6175 144.354 30.4583 144.248 30.4583H133.578C133.392 30.4583 133.26 30.591 133.26 30.7768V53.0983C133.26 53.2841 133.127 53.4168 132.941 53.4168H127.5C127.314 53.4168 127.182 53.2841 127.182 53.0983V1.18276C127.182 0.996966 127.314 0.864258 127.5 0.864258H144.805C155.926 0.864258 162.376 6.57073 162.376 15.4357C162.376 20.452 159.828 27.2998 150.724 29.6089C150.512 29.662 150.406 29.9009 150.512 30.0867L164.685 52.9656C164.818 53.178 164.685 53.4699 164.42 53.4699H158.342C158.342 53.4699 158.129 53.4168 158.076 53.3107V53.2841ZM156.298 15.6745C156.298 9.14527 151.494 6.06643 144.513 6.06643H133.578C133.392 6.06643 133.26 6.19914 133.26 6.38493V24.9641C133.26 25.1499 133.392 25.2826 133.578 25.2826H144.513C151.494 25.2826 156.298 21.9118 156.298 15.6745Z" fill="white"/>
<path d="M30.1715 0.864258H36.7008C36.9662 0.864258 37.2051 1.05005 37.2581 1.28893L49.1754 45.0827C49.3346 45.6667 50.1839 45.6667 50.3432 45.0827L60.6945 1.31547C60.7475 1.05005 60.9864 0.864258 61.2518 0.864258H66.1355C66.5071 0.864258 66.7991 1.2093 66.6929 1.58088L54.006 52.9125C53.9263 53.2045 53.6609 53.4168 53.3424 53.4168H46.5743C46.2823 53.4168 46.0169 53.2045 45.9373 52.9125L33.967 9.3576C33.8077 8.77369 32.9849 8.77369 32.8257 9.3576L21.0677 52.9125C20.9881 53.2045 20.7227 53.4168 20.4307 53.4168H13.7422C13.4237 53.4168 13.1583 53.2045 13.0787 52.9125L0.152844 1.60743C0.0732189 1.23584 0.338636 0.890799 0.71022 0.890799H5.96548C6.23089 0.890799 6.46977 1.07659 6.52285 1.34201L16.6618 45.0562C16.7945 45.6667 17.6438 45.6667 17.8296 45.0562L29.6141 1.28893C29.6938 1.02351 29.9061 0.864258 30.1715 0.864258Z" fill="white"/>
<path d="M94.3757 56.1506C78.9284 56.1506 66.3477 43.5964 66.3477 28.1491C66.3477 12.7019 78.9284 0.121094 94.3757 0.121094C109.823 0.121094 122.404 12.6753 122.404 28.1491C122.404 43.6229 109.823 56.1506 94.3757 56.1506ZM94.3757 4.76589C81.503 4.76589 71.019 15.2499 71.019 28.1226C71.019 40.9953 81.503 51.4793 94.3757 51.4793C107.248 51.4793 117.732 40.9953 117.732 28.1226C117.732 15.2499 107.248 4.76589 94.3757 4.76589Z" fill="white"/>
<path d="M94.3757 49.1702C82.777 49.1702 73.3281 39.7479 73.3281 28.1491C73.3281 16.5504 82.777 7.10156 94.3757 7.10156C105.974 7.10156 115.423 16.5504 115.423 28.1491C115.423 39.7479 105.974 49.1702 94.3757 49.1702ZM94.3757 11.7464C85.3515 11.7464 77.9995 19.0984 77.9995 28.1226C77.9995 37.1468 85.3515 44.4988 94.3757 44.4988C103.4 44.4988 110.752 37.1468 110.752 28.1226C110.752 19.0984 103.4 11.7464 94.3757 11.7464Z" fill="white"/>
</svg>
